<?xml version="1.0" encoding="UTF-8"?>
<svg version="1.1" xmlns="http://www.w3.org/2000/svg" width="500" height="500">
<path d="M0 0 C0.79535156 0.44359863 1.59070313 0.88719727 2.41015625 1.34423828 C12.34807509 6.94095555 21.62544318 12.77293635 30.11328125 20.4140625 C32.9110098 22.92028212 35.79801208 25.24162674 38.75 27.5625 C44.08712561 31.9172851 48.5736803 36.73584121 53 42 C53.763125 42.89976563 54.52625 43.79953125 55.3125 44.7265625 C60.21355046 50.60451153 64.77951497 56.61651639 69 63 C69.37769531 63.5681543 69.75539063 64.13630859 70.14453125 64.72167969 C81.46947588 81.8798696 88.59427087 99.17422937 94 119 C94.21672363 119.78971191 94.43344727 120.57942383 94.65673828 121.39306641 C103.71015762 155.05283561 101.12807625 189.69348887 92 223 C91.77328613 223.83305664 91.54657227 224.66611328 91.31298828 225.52441406 C84.37478143 250.2570198 70.03026014 272.98117655 53 292 C52.26265625 292.85851562 51.5253125 293.71703125 50.765625 294.6015625 C36.29072601 311.24241353 19.07563771 324.10264674 0 335 C-0.65307129 335.37398926 -1.30614258 335.74797852 -1.97900391 336.13330078 C-45.38975218 360.51036518 -98.57627427 361.89030544 -145.69628906 349.27832031 C-171.71334 341.94861895 -194.92463894 327.86977207 -215 310 C-215.99257812 309.12988281 -216.98515625 308.25976562 -218.0078125 307.36328125 C-223.4364657 302.53370286 -228.39072495 297.60855147 -233 292 C-233.99966989 290.82393808 -234.99970555 289.64818701 -236 288.47265625 C-243.32109155 279.77576745 -249.50882999 270.94177584 -255 261 C-255.37608398 260.33919434 -255.75216797 259.67838867 -256.13964844 258.99755859 C-266.5005406 240.78132112 -272.97810696 221.3111589 -277.1875 200.8125 C-277.35467529 200.00498291 -277.52185059 199.19746582 -277.6940918 198.36547852 C-287.27902565 149.65070654 -273.52057438 101.07838656 -247.19140625 60.19140625 C-243.59063182 54.86092955 -239.55304793 50.0982668 -235.19140625 45.375 C-233.22551446 43.24440783 -231.32422974 41.0754684 -229.4375 38.875 C-223.39672877 31.97718572 -216.92015403 25.92561877 -209.75 20.20703125 C-208.07611886 18.86364653 -206.42346352 17.49244199 -204.8125 16.07421875 C-149.9627333 -31.23370503 -61.53805365 -34.63672225 0 0 Z " fill="#151415" transform="translate(340,83)"/>
<path d="M0 0 C0.87454834 0.00523682 1.74909668 0.01047363 2.65014648 0.01586914 C3.59438477 0.0190918 4.53862305 0.02231445 5.51147461 0.02563477 C6.50469727 0.03401367 7.49791992 0.04239258 8.52124023 0.05102539 C9.51833008 0.05553711 10.51541992 0.06004883 11.54272461 0.06469727 C14.01478872 0.07652532 16.48673541 0.0930069 18.95874023 0.11352539 C20.15878926 4.34402575 19.68621805 6.92160253 18.29858398 11.05883789 C17.92040527 12.20755371 17.54222656 13.35626953 17.15258789 14.53979492 C16.73799316 15.76037598 16.32339844 16.98095703 15.89624023 18.23852539 C15.47098561 19.51919369 15.04700541 20.80028584 14.62426758 22.08178711 C13.7855871 24.62135987 12.94142142 27.15886078 12.09399414 29.69555664 C10.70999429 33.86243792 9.38735188 38.04597362 8.08374023 42.23852539 C6.18374872 48.31168774 4.22822021 54.36571201 2.25170898 60.41430664 C1.75735214 61.93040249 1.26304936 63.44651597 0.76879883 64.96264648 C0.0292106 67.23116168 -0.71170413 69.49918993 -1.4574585 71.76568604 C-4.00412897 79.5058144 -6.40766802 87.22176883 -8.30517578 95.15234375 C-9.72952417 100.88233432 -11.46341449 106.52379886 -13.16625977 112.17602539 C-13.45489395 113.13773148 -13.45489395 113.13773148 -13.74935913 114.11886597 C-16.95310956 124.77750666 -20.36755601 135.35356075 -23.94604492 145.89306641 C-26.12350484 152.30672154 -28.18126368 158.74488423 -30.15527344 165.22412109 C-31.68748078 170.22100009 -33.37055933 175.16109196 -35.04125977 180.11352539 C-42.30125977 180.11352539 -49.56125977 180.11352539 -57.04125977 180.11352539 C-55.74408294 174.27622965 -54.39312447 168.62577186 -52.66625977 162.92602539 C-52.26189458 161.57858481 -51.85827836 160.23091929 -51.45532227 158.88305664 C-51.23618164 158.15070801 -51.01704102 157.41835938 -50.79125977 156.66381836 C-49.88705918 153.58918315 -49.01587762 150.50574035 -48.14282227 147.42211914 C-46.1324787 140.36797561 -43.98232661 133.36331816 -41.79125977 126.36352539 C-41.19896809 124.46170521 -40.60668071 122.55988368 -40.01472473 120.65795898 C-39.41444169 118.72960844 -38.81361018 116.80142953 -38.21264648 114.87329102 C-33.77612638 100.63352244 -29.36555251 86.39899812 -25.33618164 72.03808594 C-22.74317038 62.89315359 -19.80635207 53.86096491 -16.87329102 44.82055664 C-15.42396986 40.34224092 -14.04410222 35.8477039 -12.70458984 31.33544922 C-11.82744337 28.39731522 -10.90120307 25.47520802 -9.97875977 22.55102539 C-8.80615348 18.7755885 -7.76149477 15.05056364 -6.97875977 11.17602539 C-4.72781005 0.26293884 -4.72781005 0.26293884 0 0 Z " fill="#FBFBFB" transform="translate(268.041259765625,159.886474609375)"/>
<path d="M0 0 C4.43406351 1.424663 7.07973897 3.61839306 10.375 6.875 C11.26960938 7.73867187 12.16421875 8.60234375 13.0859375 9.4921875 C15 12 15 12 14.80615234 13.95410156 C13.8782045 16.30909943 12.83678505 17.49419429 11.015625 19.2421875 C10.40976563 19.83386719 9.80390625 20.42554688 9.1796875 21.03515625 C8.22449219 21.94587891 8.22449219 21.94587891 7.25 22.875 C2.06230004 27.85282751 2.06230004 27.85282751 -2.703125 33.2265625 C-4.68829987 35.62362739 -6.60796085 37.53235489 -9 39.5 C-12.41228188 42.40203413 -15.13672145 45.54938226 -18 49 C-19.73177585 50.57507223 -21.51302259 52.07333344 -23.3125 53.5703125 C-25.68419408 55.57966443 -27.83003557 57.77578646 -30 60 C-31.26950192 61.27216335 -32.54039265 62.54294196 -33.8125 63.8125 C-34.71935547 64.71935547 -34.71935547 64.71935547 -35.64453125 65.64453125 C-36.09183594 66.09183594 -36.53914063 66.53914063 -37 67 C-35.4462033 70.73840484 -33.15321193 73.05937603 -30.27490234 75.87280273 C-29.79668533 76.34328033 -29.31846832 76.81375793 -28.82575989 77.29849243 C-27.79059829 78.31604582 -26.75324173 79.33137007 -25.71393967 80.34469414 C-24.06972144 81.94942032 -22.43319525 83.56162279 -20.79873657 85.17628479 C-16.15216212 89.76487203 -11.49603031 94.34357684 -6.82519531 98.9074707 C-3.96580991 101.70244756 -1.1187204 104.5094599 1.72095871 107.32444954 C2.80482099 108.39404764 3.89333823 109.45894987 4.9865303 110.51901054 C6.51385693 112.00066647 8.02510442 113.49710473 9.53369141 114.99780273 C10.39813873 115.84511459 11.26258606 116.69242645 12.15322876 117.56541443 C14 120 14 120 14.42074585 122.62953186 C13.76636606 126.31628583 11.34758159 128.37656274 8.75 130.875 C8.25886719 131.38546875 7.76773438 131.8959375 7.26171875 132.421875 C5.796875 133.8671875 5.796875 133.8671875 3 136 C-0.75446249 135.74052085 -2.75488728 133.71853799 -5.43481445 131.23120117 C-6.75758896 130.0047438 -6.75758896 130.0047438 -8.10708618 128.75350952 C-17.29443249 120.00888485 -26.30401014 111.08498328 -35.30786133 102.15209961 C-37.90487157 99.57755797 -40.51134905 97.01318335 -43.1262207 94.45678711 C-46.30437108 91.34951008 -49.46518498 88.22556636 -52.61425209 85.08882713 C-53.81201594 83.90146951 -55.01578494 82.72013774 -56.22560692 81.54506874 C-57.9082838 79.90836814 -59.56775974 78.25115214 -61.22338867 76.5871582 C-61.72556412 76.10857864 -62.22773956 75.62999908 -62.74513245 75.13691711 C-64.09953308 73.74897766 -64.09953308 73.74897766 -66 71 C-65.84107015 66.63665876 -64.88627269 64.23965144 -61.9375 61.0625 C-61.30714844 60.38316406 -60.67679688 59.70382813 -60.02734375 59.00390625 C-57.47700014 56.48304638 -54.78711951 54.16711734 -52.05273438 51.84960938 C-50.23145445 50.20855125 -48.71310092 48.573832 -47.15234375 46.69140625 C-41.91833053 40.62898806 -36.19058284 35.04171471 -30.52124023 29.39086914 C-28.56704376 27.4420313 -26.61824853 25.48790728 -24.66992188 23.53320312 C-13.36107007 12.21884642 -13.36107007 12.21884642 -7.57983398 7.359375 C-4.90197849 5.05520264 -2.46584169 2.52748773 0 0 Z " fill="#FBFBFB" transform="translate(195,182)"/>
<path d="M0 0 C2.2436118 0.89847589 3.40156076 1.84486693 5.07714844 3.57397461 C5.90375977 4.41508789 5.90375977 4.41508789 6.74707031 5.27319336 C7.31103516 5.86229492 7.875 6.45139648 8.45605469 7.05834961 C9.01615234 7.63198242 9.57625 8.20561523 10.15332031 8.79663086 C11.26658842 9.93717858 12.37712221 11.08040182 13.48486328 12.22631836 C15.63708069 14.4463707 17.82727917 16.62687115 20.01855469 18.80834961 C21.36256369 20.15184056 22.70628558 21.49561876 24.04980469 22.83959961 C24.778125 23.56791992 25.50644531 24.29624023 26.25683594 25.04663086 C35.57324219 34.36303711 44.88964844 43.67944336 54.20605469 52.99584961 C54.8626709 53.65198242 55.51928711 54.30811523 56.19580078 54.98413086 C57.31530794 56.1045377 58.43319817 57.22656647 59.54833984 58.35131836 C61.44276408 60.2604389 63.33419426 62.07415135 65.39355469 63.80834961 C67.01855469 65.80834961 67.01855469 65.80834961 66.96142578 68.04663086 C65.66951223 71.83071323 63.29787033 74.19396967 60.55761719 76.99584961 C59.9529361 77.62821533 59.348255 78.26058105 58.72525024 78.91210938 C56.50280363 81.22391358 54.26182421 83.51674573 52.01855469 85.80834961 C51.10086304 86.75000977 50.18317139 87.69166992 49.2376709 88.66186523 C43.36206579 94.68759985 37.45507238 100.68130037 31.5197258 106.64819336 C28.64339855 109.5398892 25.77244613 112.4364947 22.91357422 115.34545898 C20.10737346 118.20075218 17.28930091 121.04378293 14.46202469 123.87820435 C13.39482187 124.95212078 12.33187913 126.03028839 11.27335739 127.11276245 C9.80709181 128.61042148 8.32608096 130.09177227 6.84033203 131.57006836 C6.00319672 132.41529053 5.1660614 133.2605127 4.30355835 134.13134766 C2.01855469 135.80834961 2.01855469 135.80834961 -0.15560913 135.66845703 C-2.48809936 134.5696771 -4.14096291 133.17133354 -6.04394531 131.43334961 C-6.71554687 130.82749023 -7.38714844 130.22163086 -8.07910156 129.59741211 C-8.706875 129.00702148 -9.33464844 128.41663086 -9.98144531 127.80834961 C-10.57828125 127.34170898 -11.17511719 126.87506836 -11.79003906 126.39428711 C-12.98144531 124.80834961 -12.98144531 124.80834961 -12.92675781 122.39038086 C-11.77201246 119.23630369 -10.31317286 117.77352752 -7.85644531 115.49584961 C-5.01059524 112.83217333 -2.35648379 110.12061151 0.17456055 107.16113281 C3.98608093 102.78434405 8.02213088 98.67708283 12.13964844 94.58959961 C12.88440933 93.84625366 13.62917023 93.10290771 14.39649963 92.33703613 C16.74732214 89.9917566 19.101619 87.65000125 21.45605469 85.30834961 C23.06240668 83.70702 24.66852866 82.10545963 26.27441406 80.50366211 C30.18647453 76.60255488 34.10138421 72.70432541 38.01855469 68.80834961 C36.5680857 65.7713444 35.14174338 63.70932678 32.70605469 61.37084961 C32.13242187 60.81526367 31.55878906 60.25967773 30.96777344 59.68725586 C30.32453125 59.0672168 29.68128906 58.44717773 29.01855469 57.80834961 C26.1026334 54.90766833 23.2059236 51.98827733 20.31152344 49.06616211 C18.94308649 47.68850566 17.57459572 46.31090267 16.20605469 44.93334961 C15.53251953 44.25143555 14.85898437 43.56952148 14.16503906 42.86694336 C10.80598242 39.49181468 7.40777715 36.23002209 3.79980469 33.12084961 C0.73954136 30.48298883 -2.01294331 27.73701549 -4.66894531 24.68334961 C-7.05435641 21.95480312 -9.41008833 19.35334868 -12.10644531 16.93334961 C-13.98144531 14.80834961 -13.98144531 14.80834961 -13.93066406 13.03881836 C-12.52832909 9.74361972 -10.16859527 7.48256476 -7.66894531 4.99584961 C-7.18232422 4.48086914 -6.69570313 3.96588867 -6.19433594 3.43530273 C-2.53367702 -0.24506363 -2.53367702 -0.24506363 0 0 Z " fill="#FBFBFB" transform="translate(303.9814453125,182.191650390625)"/>
<path d="M0 0 C4.68626305 7.02939458 3.15621889 17.98213425 3.125 26.1875 C3.12886719 27.21552734 3.13273437 28.24355469 3.13671875 29.30273438 C3.12947498 34.9637398 2.84481777 40.40140602 2 46 C1.67 46 1.34 46 1 46 C0.08654554 40.8483855 0.05240308 36.15483932 0.5 30.9375 C1.76520722 18.13262571 1.76520722 18.13262571 -1 6 C-0.71887936 3.99199544 -0.38932033 1.98985949 0 0 Z " fill="#0A0809" transform="translate(437,223)"/>
<path d="M0 0 C0.33 0 0.66 0 1 0 C1.19876838 4.31205687 1.38196186 8.62464444 1.5625 12.9375 C1.61857422 14.14986328 1.67464844 15.36222656 1.73242188 16.61132812 C2.00091846 23.2163442 1.95310331 29.45535725 1 36 C0.67 36 0.34 36 0 36 C-0.88825514 32.18985295 -1.12872859 28.65469151 -1.1328125 24.74609375 C-1.13410156 23.56208984 -1.13539062 22.37808594 -1.13671875 21.15820312 C-1.13285156 19.93037109 -1.12898438 18.70253906 -1.125 17.4375 C-1.12886719 16.20580078 -1.13273437 14.97410156 -1.13671875 13.70507812 C-1.13542969 12.52236328 -1.13414063 11.33964844 -1.1328125 10.12109375 C-1.13168457 9.0427124 -1.13055664 7.96433105 -1.12939453 6.85327148 C-1.01771053 4.39053394 -0.71353521 2.34715529 0 0 Z " fill="#0D0B0D" transform="translate(61,232)"/>
<path d="M0 0 C5.07667958 3.79446389 8.16965329 7.78993555 11.4375 13.1875 C11.89576172 13.91130859 12.35402344 14.63511719 12.82617188 15.38085938 C13.95540136 17.21181217 14.98691792 19.10231402 16 21 C15.67 21.66 15.34 22.32 15 23 C14.67 22.01 14.34 21.02 14 20 C13.01 19.67 12.02 19.34 11 19 C10.29289322 17.35008418 9.63437344 15.6792238 9 14 C8.29875 12.948125 7.5975 11.89625 6.875 10.8125 C5 8 5 8 5 6 C4.34 6 3.68 6 3 6 C0 2.53846154 0 2.53846154 0 0 Z " fill="#0E0D0D" transform="translate(398,133)"/>
<path d="M0 0 C0.66 0.33 1.32 0.66 2 1 C-11.8630137 11 -11.8630137 11 -16 11 C-16 10.34 -16 9.68 -16 9 C-13.09307326 7.51273516 -10.24412851 6.09222633 -7.1875 4.9375 C-4.83484431 4.20797383 -4.83484431 4.20797383 -4 2 C-2.0625 0.8125 -2.0625 0.8125 0 0 Z " fill="#0F0C0D" transform="translate(352,408)"/>
<path d="M0 0 C0.99 0.33 1.98 0.66 3 1 C2.67 3.64 2.34 6.28 2 9 C0.02 7.35 -1.96 5.7 -4 4 C-2.66666667 2.66666667 -1.33333333 1.33333333 0 0 Z " fill="#1C1C1C" transform="translate(348,218)"/>
<path d="M0 0 C3.97849289 1.3261643 6.18689707 2.91466131 9 6 C9.7425 6.7425 10.485 7.485 11.25 8.25 C11.8275 8.8275 12.405 9.405 13 10 C8.87731395 10 7.79669528 8.32277298 4.8125 5.5625 C3.91144531 4.73878906 3.01039062 3.91507812 2.08203125 3.06640625 C1.39496094 2.38449219 0.70789063 1.70257813 0 1 C0 0.67 0 0.34 0 0 Z " fill="#110E0E" transform="translate(122,389)"/>
<path d="M0 0 C1 3 1 3 -0.21484375 5.69921875 C-0.78332031 6.68535156 -1.35179687 7.67148437 -1.9375 8.6875 C-2.50339844 9.68136719 -3.06929688 10.67523438 -3.65234375 11.69921875 C-4.31943359 12.83810547 -4.31943359 12.83810547 -5 14 C-6.24546405 11.50907189 -5.7767578 10.58919267 -5 8 C-4.34 8 -3.68 8 -3 8 C-2.87625 7.05125 -2.7525 6.1025 -2.625 5.125 C-2 2 -2 2 0 0 Z " fill="#0D0B0C" transform="translate(423,325)"/>
<path d="M0 0 C-1.50223584 4.20626034 -4.28550034 5.73900021 -8 8 C-8.66 7.67 -9.32 7.34 -10 7 C-9.09827532 5.82174642 -8.17798498 4.65768423 -7.25 3.5 C-6.73953125 2.8503125 -6.2290625 2.200625 -5.703125 1.53125 C-4 0 -4 0 0 0 Z " fill="#222222" transform="translate(375,250)"/>
<path d="M0 0 C2.72107452 2.3500189 3.96702492 4.55674975 5 8 C4.67 8.99 4.34 9.98 4 11 C3.54625 10.21625 3.0925 9.4325 2.625 8.625 C1.11571258 5.96301969 1.11571258 5.96301969 -1 4 C-0.625 1.875 -0.625 1.875 0 0 Z " fill="#0F0C0E" transform="translate(420,167)"/>
<path d="M0 0 C0.33 0.66 0.66 1.32 1 2 C3.32156597 2.40729228 5.6568787 2.74438677 8 3 C8.33 3.99 8.66 4.98 9 6 C9.66 6.33 10.32 6.66 11 7 C6.24518354 6.42365861 3.02951788 4.44931479 -1 2 C-0.67 1.34 -0.34 0.68 0 0 Z " fill="#0E0B0C" transform="translate(164,417)"/>
<path d="M0 0 C1.32 0 2.64 0 4 0 C2.95125002 2.62187494 2.35068687 3.79371361 -0.125 5.25 C-0.74375 5.4975 -1.3625 5.745 -2 6 C-1.125 1.125 -1.125 1.125 0 0 Z " fill="#100D0E" transform="translate(378,385)"/>
<path d="M0 0 C0.99 0.33 1.98 0.66 3 1 C1.75023244 4.65316671 1.32901247 5.78065836 -2 8 C-2 7.01 -2 6.02 -2 5 C-1.34 5 -0.68 5 0 5 C-0.2784375 4.0409375 -0.2784375 4.0409375 -0.5625 3.0625 C-0.7790625 2.0415625 -0.7790625 2.0415625 -1 1 C-0.67 0.67 -0.34 0.34 0 0 Z " fill="#100D0E" transform="translate(403,356)"/>
<path d="M0 0 C1 3 1 3 0.25 5.125 C-1 7 -1 7 -4 8 C-2.87548273 5.0280615 -1.77706209 2.66559313 0 0 Z " fill="#0F0D0E" transform="translate(94,142)"/>
<path d="M0 0 C0 0.99 0 1.98 0 3 C-4.625 5.125 -4.625 5.125 -8 4 C-2.25 0 -2.25 0 0 0 Z " fill="#0D0B0C" transform="translate(331,420)"/>
<path d="M0 0 C0.99 0.99 1.98 1.98 3 3 C2.34 3.66 1.68 4.32 1 5 C-1.125 4.625 -1.125 4.625 -3 4 C-2.01 2.68 -1.02 1.36 0 0 Z " fill="#1D1D1D" transform="translate(364,235)"/>
</svg>
